{
    "asset" : {
        "generator" : "Khronos glTF Blender I/O v1.5.17",
        "version" : "2.0"
    },
    "scene" : 0,
    "scenes" : [
        {
            "name" : "Scene",
            "nodes" : [
                1,
                2,
                3
            ]
        }
    ],
    "nodes" : [
        {
            "mesh" : 0,
            "name" : "node_id36",
            "rotation" : [
                0,
                0.5979642271995544,
                0,
                0.8015227913856506
            ],
            "scale" : [
                0.025600001215934753,
                0.025599999353289604,
                0.025600001215934753
            ],
            "translation" : [
                0,
                0,
                0.2560000419616699
            ]
        },
        {
            "children" : [
                0
            ],
            "name" : "root"
        },
        {
            "name" : "Light",
            "rotation" : [
                0.16907575726509094,
                0.7558803558349609,
                -0.27217137813568115,
                0.570947527885437
            ],
            "translation" : [
                4.076245307922363,
                5.903861999511719,
                -1.0054539442062378
            ]
        },
        {
            "name" : "Camera",
            "rotation" : [
                0.483536034822464,
                0.33687159419059753,
                -0.20870360732078552,
                0.7804827094078064
            ],
            "translation" : [
                7.358891487121582,
                4.958309173583984,
                6.925790786743164
            ]
        }
    ],
    "materials" : [
        {
            "alphaCutoff" : 0.5,
            "alphaMode" : "MASK",
            "doubleSided" : true,
            "name" : "58",
            "pbrMetallicRoughness" : {}
        }
    ],
    "meshes" : [
        {
            "name" : "mesh_id37",
            "primitives" : [
                {
                    "attributes" : {
                        "POSITION" : 0,
                        "NORMAL" : 1,
                        "TANGENT" : 2,
                        "TEXCOORD_0" : 3
                    },
                    "indices" : 4,
                    "material" : 0
                }
            ]
        }
    ],
    "accessors" : [
        {
            "bufferView" : 0,
            "componentType" : 5126,
            "count" : 10199,
            "max" : [
                10.000003814697266,
                10,
                10.000004768371582
            ],
            "min" : [
                -9.999996185302734,
                -10,
                -9.999995231628418
            ],
            "type" : "VEC3"
        },
        {
            "bufferView" : 1,
            "componentType" : 5126,
            "count" : 10199,
            "type" : "VEC3"
        },
        {
            "bufferView" : 2,
            "componentType" : 5126,
            "count" : 10199,
            "type" : "VEC4"
        },
        {
            "bufferView" : 3,
            "componentType" : 5126,
            "count" : 10199,
            "type" : "VEC2"
        },
        {
            "bufferView" : 4,
            "componentType" : 5123,
            "count" : 59400,
            "type" : "SCALAR"
        }
    ],
    "bufferViews" : [
        {
            "buffer" : 0,
            "byteLength" : 122388,
            "byteOffset" : 0
        },
        {
            "buffer" : 0,
            "byteLength" : 122388,
            "byteOffset" : 122388
        },
        {
            "buffer" : 0,
            "byteLength" : 163184,
            "byteOffset" : 244776
        },
        {
            "buffer" : 0,
            "byteLength" : 81592,
            "byteOffset" : 407960
        },
        {
            "buffer" : 0,
            "byteLength" : 118800,
            "byteOffset" : 489552
        }
    ],
    "buffers" : [
        {
            "byteLength" : 608352,
            "uri" : "data:application/octet-stream;base64,"
        }
    ]
}
