{
  "asset": {
    "version": "2.0",
    "generator": "Microsoft GLTF Exporter 2.4.2.15"
  },
  "accessors": [
    {
      "bufferView": 0,
      "componentType": 5123,
      "count": 59400,
      "type": "SCALAR"
    },
    {
      "bufferView": 1,
      "componentType": 5126,
      "count": 10199,
      "type": "VEC3",
      "max": [
        10,
        10,
        9.999999046325684
      ],
      "min": [
        -9.999996185302734,
        -10,
        -9.999995231628418
      ]
    },
    {
      "bufferView": 2,
      "componentType": 5126,
      "count": 10199,
      "type": "VEC3"
    },
    {
      "bufferView": 3,
      "componentType": 5126,
      "count": 10199,
      "type": "VEC2"
    }
  ],
  "bufferViews": [
    {
      "buffer": 0,
      "byteOffset": 0,
      "byteLength": 118800,
      "target": 34963
    },
    {
      "buffer": 0,
      "byteOffset": 118800,
      "byteLength": 122388,
      "target": 34962
    },
    {
      "buffer": 0,
      "byteOffset": 241188,
      "byteLength": 122388,
      "target": 34962
    },
    {
      "buffer": 0,
      "byteOffset": 363576,
      "byteLength": 81592,
      "target": 34962
    }
  ],
  "buffers": [
    {
      "uri": "moon_data.bin",
      "byteLength": 445168
    }
  ],
  "images": [
    {
      "uri": "moon_img0.png"
    },
    {
      "uri": "moon_img1.png"
    },
    {
      "uri": "moon_img2.png"
    },
    {
      "uri": "moon_img3.png"
    }
  ],
  "materials": [
    {
      "pbrMetallicRoughness": {
        "baseColorTexture": {
          "index": 2
        },
        "metallicRoughnessTexture": {
          "index": 3
        }
      },
      "alphaMode": "MASK",
      "name": "45",
      "doubleSided": true,
      "extensions": {
        "KHR_materials_pbrSpecularGlossiness": {
          "diffuseTexture": {
            "index": 0
          },
          "specularGlossinessTexture": {
            "index": 1
          }
        }
      },
      "extras": {
        "MSFT_sRGBFactors": false
      }
    }
  ],
  "meshes": [
    {
      "name": "mesh_id31",
      "primitives": [
        {
          "attributes": {
            "POSITION": 1,
            "NORMAL": 2,
            "TEXCOORD_0": 3
          },
          "indices": 0,
          "material": 0
        }
      ]
    }
  ],
  "nodes": [
    {
      "children": [
        1
      ],
      "name": "root"
    },
    {
      "translation": [
        -5.229376398574459e-8,
        4.787719998233797e-9,
        0.2560010552406311
      ],
      "rotation": [
        0.040507588535547256,
        0.5640910863876343,
        -0.027722064405679703,
        0.8242522478103638
      ],
      "scale": [
        0.025599997490644455,
        0.025600001215934753,
        0.025600001215934753
      ],
      "mesh": 0,
      "name": "node_id30"
    }
  ],
  "samplers": [
    {
      "minFilter": 9985
    }
  ],
  "scenes": [
    {
      "nodes": [
        0
      ]
    }
  ],
  "textures": [
    {
      "name": "texture5",
      "sampler": 0,
      "source": 0
    },
    {
      "name": "texture7",
      "sampler": 0,
      "source": 1
    },
    {
      "name": "45_bc",
      "sampler": 0,
      "source": 2
    },
    {
      "name": "45_mr",
      "sampler": 0,
      "source": 3
    }
  ],
  "scene": 0,
  "extensionsUsed": [
    "KHR_materials_pbrSpecularGlossiness"
  ]
}